<svg width="65" height="65" viewBox="0 0 65 65" fill="none" xmlns="http://www.w3.org/2000/svg">
<path d="M45.3417 41.7L43.697 43.4316C43.697 43.4316 39.7877 47.5474 29.1168 36.313C18.446 25.0786 22.3553 20.9628 22.3553 20.9628L23.391 19.8724C25.9425 17.1862 26.183 12.8735 23.957 9.72508L19.4034 3.28472C16.6483 -0.612084 11.3243 -1.12685 8.16635 2.19787L2.49834 8.16521C0.932493 9.81376 -0.116813 11.9508 0.0104273 14.3214C0.33596 20.3864 2.92758 33.4355 17.3888 48.6604C32.7244 64.8059 47.1136 65.4475 52.9977 64.8667C54.8588 64.683 56.4775 63.6793 57.7818 62.3061L62.9116 56.9055C66.3742 53.2599 65.398 47.01 60.9676 44.4599L54.0685 40.4889C51.1595 38.8145 47.6153 39.3064 45.3417 41.7Z" fill="white"/>
</svg>
