<svg width="66" height="55" viewBox="0 0 66 55" fill="none" xmlns="http://www.w3.org/2000/svg">
<path d="M65.3814 1.95616C65.1466 1.279 64.8667 1.0894 64.4333 0.92688C63.4853 0.56573 61.8782 1.10746 61.8782 1.10746C61.8782 1.10746 4.91581 21.5847 1.66546 23.8509C0.961221 24.3384 0.726472 24.6183 0.618127 24.9524C0.0583442 26.5685 1.80992 27.2818 1.80992 27.2818L16.4907 32.067C16.4907 32.067 17.0414 32.1483 17.231 32.0219C20.5717 29.9092 50.836 10.8043 52.5786 10.1633C52.8585 10.082 53.0571 10.1723 53.0029 10.3619C52.3077 12.8177 26.025 36.1751 26.025 36.1751C26.025 36.1751 25.9257 36.3015 25.8625 36.446L25.8264 36.4279L24.454 50.9913C24.454 50.9913 23.8762 55.4515 28.3454 50.9913C31.4965 47.8403 34.5391 45.2129 36.065 43.9308C41.1121 47.4159 46.5474 51.2712 48.8858 53.2846C50.0596 54.2958 51.0527 54.4583 51.8563 54.4313C54.0774 54.35 54.7003 51.9032 54.7003 51.9032C54.7003 51.9032 65.0834 10.1272 65.4265 4.52935C65.4626 3.9786 65.5078 3.63551 65.5078 3.2563C65.5078 2.73263 65.4626 2.20897 65.3814 1.95616Z" fill="white"/>
</svg>
