<svg width="65" height="65" viewBox="0 0 65 65" fill="none" xmlns="http://www.w3.org/2000/svg">
<path fill-rule="evenodd" clip-rule="evenodd" d="M55.5221 9.44374C49.4151 3.3561 41.2826 0 32.6285 0C14.7913 0 0.272093 14.4478 0.264535 32.2065C0.264535 37.8803 1.75349 43.4261 4.58779 48.3098L0 65L17.157 60.5227C21.8808 63.0887 27.2093 64.4432 32.6209 64.4432H32.636C50.4733 64.4432 64.9924 49.9954 65 32.2291C65 23.6206 61.6366 15.5314 55.5297 9.44374H55.5221ZM32.6285 59.0027H32.6209C27.7913 59.0027 23.0599 57.7084 18.9331 55.2703L17.9506 54.6909L7.76977 57.3472L10.4907 47.467L9.84826 46.4511C7.15756 42.1921 5.73663 37.2633 5.73663 32.2065C5.73663 17.4427 17.807 5.43297 32.6512 5.43297C39.839 5.43297 46.5884 8.2247 51.6674 13.2814C56.7465 18.3457 59.543 25.0654 59.5355 32.2216C59.5355 46.9854 47.4651 58.9951 32.636 58.9951L32.6285 59.0027ZM47.382 38.9488C46.5733 38.5425 42.5977 36.6011 41.857 36.3302C41.1163 36.0593 40.5797 35.9238 40.0355 36.7365C39.4988 37.5417 37.9494 39.3552 37.4733 39.8894C37.0046 40.4237 36.5285 40.4914 35.7198 40.0926C34.911 39.6863 32.3035 38.8435 29.2198 36.0969C26.8163 33.9598 25.1913 31.3261 24.7227 30.521C24.2541 29.7158 24.6698 29.2793 25.0779 28.8805C25.4407 28.5193 25.8866 27.9399 26.2872 27.4734C26.6878 27.0068 26.8238 26.6682 27.0959 26.1339C27.368 25.5997 27.232 25.1256 27.0279 24.7268C26.8238 24.3204 25.2064 20.3624 24.5337 18.752C23.8762 17.1793 23.211 17.3975 22.7122 17.3674C22.2436 17.3449 21.6994 17.3373 21.1628 17.3373C20.6262 17.3373 19.7494 17.5405 19.0087 18.3457C18.268 19.1508 16.182 21.0998 16.182 25.0579C16.182 29.016 19.0767 32.8461 19.4849 33.3804C19.8855 33.9147 25.1837 42.0491 33.3012 45.5331C35.2285 46.3608 36.7401 46.8575 37.9116 47.2262C39.8465 47.8357 41.6151 47.753 43.0058 47.5423C44.5628 47.309 47.7901 45.5933 48.4628 43.7121C49.1355 41.8309 49.1355 40.2205 48.9314 39.8819C48.7273 39.5433 48.1907 39.3476 47.382 38.9413V38.9488Z" fill="white"/>
</svg>
