<svg width="147" height="76" viewBox="0 0 147 76" fill="none" xmlns="http://www.w3.org/2000/svg">
<g clip-path="url(#clip0_3_11)">
<path d="M34.3443 55.2731C34.3443 55.9904 34.0635 56.6376 33.4988 57.2176C29.6953 60.2549 25.4033 61.772 20.6261 61.772C14.9605 61.772 10.1343 59.7756 6.14157 55.7828C2.14879 51.7901 0.152405 46.9639 0.152405 41.2984C0.152405 35.6328 2.14879 30.8311 6.14157 26.8383C10.1496 22.8303 14.9788 20.8247 20.6261 20.8247C25.4705 20.8247 29.8479 22.4212 33.7552 25.6112C34.2314 26.0538 34.4726 26.6765 34.4726 27.4793C34.4726 27.8731 34.4054 28.2303 34.268 28.5538C34.1307 28.8774 33.9384 29.1644 33.6911 29.4116C33.4438 29.6589 33.1538 29.8512 32.8211 29.9885C32.4884 30.1259 32.1343 30.1931 31.7588 30.1931C31.0598 30.1931 30.437 29.9367 29.8906 29.4238C28.5933 28.4012 27.1647 27.6167 25.6048 27.0703C24.0449 26.5239 22.3843 26.2522 20.6261 26.2522C16.4623 26.2522 12.9061 27.7266 9.95424 30.6784C7.03597 33.5967 5.57684 37.1377 5.57684 41.2984C5.57684 45.459 7.03597 49.0275 9.95424 51.9458C12.8878 54.8793 16.4471 56.3476 20.6261 56.3476C23.7153 56.3476 26.4779 55.5386 28.9169 53.9177V45.9841H21.8532C21.087 45.9841 20.4429 45.7246 19.9209 45.2026C19.3989 44.6837 19.1395 44.0396 19.1395 43.2703C19.1395 42.8949 19.2066 42.5408 19.344 42.208C19.4813 41.8753 19.6737 41.5853 19.9209 41.338C20.1682 41.0908 20.4551 40.8985 20.7787 40.7611C21.1023 40.6237 21.4625 40.5566 21.8532 40.5566H31.655C32.0122 40.5566 32.3541 40.6298 32.6776 40.7733C33.0012 40.9198 33.2882 41.1152 33.5354 41.3625C33.7827 41.6097 33.978 41.8997 34.1246 42.2324C34.268 42.5652 34.3413 42.9101 34.3413 43.2703V55.2731H34.3443Z" fill="white"/>
<path d="M20.6263 61.9247C14.9454 61.9247 10.0369 59.8947 6.0319 55.8928C2.02997 51.8878 0 46.9792 0 41.2984C0 35.6175 2.02997 30.7334 6.0319 26.7315C10.0521 22.7112 14.9607 20.6721 20.6263 20.6721C25.486 20.6721 29.9336 22.293 33.8531 25.4921C34.369 25.9714 34.6254 26.6369 34.6254 27.4794C34.6254 27.8915 34.5521 28.273 34.4087 28.6149C34.2652 28.9568 34.0607 29.2621 33.8012 29.5215C33.5387 29.781 33.2304 29.9886 32.8824 30.1321C32.5344 30.2755 32.1559 30.3488 31.7621 30.3488C31.0264 30.3488 30.361 30.0771 29.7901 29.5399C28.5233 28.5417 27.0947 27.7572 25.5562 27.2169C24.0177 26.6796 22.3601 26.4079 20.6293 26.4079C16.5267 26.4079 12.9735 27.8823 10.0644 30.7914C7.18882 33.667 5.73274 37.2018 5.73274 41.3045C5.73274 45.4072 7.18882 48.9695 10.0644 51.842C12.9551 54.7328 16.5083 56.198 20.6293 56.198C23.6422 56.198 26.3804 55.4044 28.7675 53.8384V46.1398H21.8565C21.0506 46.1398 20.3638 45.862 19.8173 45.3156C19.2709 44.7692 18.9931 44.0824 18.9931 43.2765C18.9931 42.8827 19.0664 42.5042 19.2099 42.1562C19.3534 41.8051 19.5579 41.4968 19.8173 41.2373C20.0768 40.9779 20.3821 40.7734 20.724 40.6299C21.0658 40.4864 21.4474 40.4132 21.8595 40.4132H31.6614C32.0399 40.4132 32.4031 40.4895 32.7481 40.6451C33.0869 40.7978 33.3922 41.0053 33.6516 41.2648C33.9111 41.5243 34.1217 41.8356 34.2713 42.1806C34.4239 42.5316 34.5002 42.901 34.5002 43.2795V55.2823C34.5002 56.0363 34.2011 56.7261 33.6119 57.3336C29.784 60.3923 25.4188 61.9369 20.6293 61.9369L20.6263 61.9247ZM20.6263 20.9774C15.0462 20.9774 10.2109 22.986 6.24863 26.9482C2.3047 30.8922 0.305258 35.7183 0.305258 41.2984C0.305258 46.8785 2.3047 51.7321 6.24863 55.676C10.1926 59.62 15.0309 61.6194 20.6263 61.6194C25.3456 61.6194 29.6436 60.0992 33.4044 57.0985C33.9233 56.5644 34.1919 55.9447 34.1919 55.2731V43.2704C34.1919 42.9346 34.1217 42.608 33.9874 42.2935C33.85 41.9822 33.6638 41.7044 33.4318 41.4693C33.1998 41.2373 32.9251 41.0481 32.6199 40.9107C32.3177 40.7764 31.9941 40.7062 31.6583 40.7062H21.8565C21.4871 40.7062 21.1452 40.7703 20.84 40.8985C20.5347 41.0267 20.263 41.2099 20.031 41.4419C19.799 41.6739 19.6159 41.9486 19.4877 42.263C19.3595 42.5744 19.2954 42.9132 19.2954 43.2673C19.2954 43.9908 19.5426 44.6043 20.031 45.0928C20.5194 45.5812 21.133 45.8284 21.8565 45.8284H29.0728V53.9971L29.0056 54.0429C26.5513 55.673 23.7338 56.5002 20.6293 56.5002C16.4259 56.5002 12.7995 55.0045 9.85067 52.0526C6.91714 49.1191 5.43054 45.5018 5.43054 41.2984C5.43054 37.095 6.91714 33.5021 9.85067 30.5686C12.8178 27.6015 16.4442 26.0966 20.6293 26.0966C22.3968 26.0966 24.0879 26.3743 25.6569 26.9238C27.229 27.4733 28.6851 28.273 29.9885 29.3018C30.5136 29.7932 31.1058 30.0374 31.7621 30.0374C32.1162 30.0374 32.455 29.9733 32.7664 29.8451C33.0777 29.7169 33.3555 29.5338 33.5875 29.3018C33.8195 29.0698 34.0027 28.7981 34.1309 28.4928C34.2591 28.1906 34.3232 27.8487 34.3232 27.4763C34.3232 26.7223 34.0973 26.1332 33.6547 25.7211C29.7993 22.5739 25.4158 20.9774 20.6293 20.9774H20.6263Z" fill="white"/>
<path d="M40.3003 59.0585V23.5387C40.3003 23.1632 40.3674 22.8091 40.5048 22.4764C40.6422 22.1437 40.8345 21.8537 41.0818 21.6064C41.329 21.3592 41.616 21.1668 41.9395 21.0295C42.2631 20.8921 42.6233 20.825 43.014 20.825H52.8922C54.6138 20.825 56.2409 21.1577 57.7672 21.8231C59.2934 22.4886 60.6244 23.3922 61.7599 24.5369C62.8955 25.6816 63.796 27.0156 64.4584 28.5419C65.1239 30.0682 65.4566 31.6952 65.4566 33.4168C65.4566 34.5432 65.3162 35.6391 65.0353 36.7045C64.7545 37.7698 64.3363 38.7772 63.7807 39.7235C63.2252 40.6698 62.5353 41.5489 61.708 42.3609C60.8808 43.1729 59.9192 43.8841 58.8294 44.4977L66.992 57.575C67.282 58.0542 67.4286 58.5487 67.4286 59.0585C67.4286 59.4523 67.3614 59.8094 67.224 60.133C67.0867 60.4566 66.8944 60.7435 66.6471 60.9908C66.3998 61.238 66.1098 61.4304 65.7771 61.5677C65.4444 61.7051 65.0903 61.7722 64.7148 61.7722C63.7594 61.7722 62.984 61.3296 62.3857 60.4413L53.3531 45.9813H45.7278V59.0585C45.7278 59.8094 45.4622 60.4505 44.9341 60.9786C44.406 61.5067 43.765 61.7722 43.014 61.7722C42.2631 61.7722 41.6221 61.5067 41.094 60.9786C40.5659 60.4505 40.3003 59.8094 40.3003 59.0585ZM45.7247 26.2494V40.5568H52.8891C53.8782 40.5568 54.8092 40.3706 55.6792 39.9951C56.5492 39.6197 57.3032 39.1038 57.9442 38.4475C58.5852 37.7912 59.092 37.0311 59.4674 36.1703C59.8429 35.3094 60.0291 34.3906 60.0291 33.4199C60.0291 32.4492 59.8399 31.4998 59.4674 30.6298C59.092 29.7598 58.5791 28.9998 57.932 28.3526C57.2848 27.7055 56.5248 27.1926 55.6548 26.8172C54.7848 26.4417 53.8629 26.2555 52.8922 26.2555H45.7278L45.7247 26.2494Z" fill="white"/>
<path d="M64.7147 61.9248C63.7104 61.9248 62.8832 61.4547 62.2605 60.5267L53.2676 46.1338H45.8773V59.0584C45.8773 59.849 45.5964 60.5298 45.0378 61.0853C44.4822 61.6409 43.7985 61.9248 43.0109 61.9248C42.2233 61.9248 41.5396 61.644 40.984 61.0853C40.4284 60.5298 40.1445 59.849 40.1445 59.0584V23.5386C40.1445 23.1448 40.2178 22.7663 40.3613 22.4183C40.5047 22.0703 40.7093 21.759 40.9687 21.4995C41.2282 21.24 41.5335 21.0355 41.8753 20.892C42.2172 20.7486 42.5988 20.6753 43.0109 20.6753H52.889C54.626 20.6753 56.2866 21.0141 57.8251 21.6857C59.3636 22.3542 60.722 23.2791 61.8636 24.43C63.0053 25.5808 63.9241 26.9453 64.5957 28.4807C65.2673 30.0192 65.6061 31.6798 65.6061 33.4168C65.6061 34.5523 65.4626 35.6696 65.1787 36.7441C64.8948 37.8186 64.4675 38.8473 63.9089 39.8028C63.3502 40.7582 62.6451 41.6557 61.8117 42.4707C61.015 43.2522 60.0809 43.9512 59.04 44.5526L67.1202 57.4955C67.4254 57.9961 67.5781 58.5242 67.5781 59.0615C67.5781 59.4705 67.5048 59.8521 67.3613 60.194C67.2179 60.5359 67.0133 60.8411 66.7539 61.1006C66.4944 61.3601 66.183 61.5676 65.835 61.7111C65.487 61.8546 65.1085 61.9278 64.7147 61.9278V61.9248ZM45.572 45.8285H53.4355L62.5138 60.3588C63.0816 61.2044 63.8051 61.6165 64.7147 61.6165C65.0688 61.6165 65.4077 61.5524 65.719 61.4242C66.0304 61.296 66.3082 61.1128 66.5402 60.8808C66.7722 60.6488 66.9553 60.3771 67.0835 60.0719C67.2118 59.7666 67.2759 59.4247 67.2759 59.0554C67.2759 58.5731 67.1354 58.103 66.8638 57.6512L58.6157 44.4396L58.7561 44.3603C59.8306 43.7558 60.7891 43.0446 61.6042 42.2479C62.4192 41.4511 63.106 40.5751 63.6524 39.644C64.1989 38.713 64.614 37.7087 64.8918 36.6616C65.1696 35.6146 65.31 34.5187 65.31 33.4107C65.31 31.7165 64.9773 30.0956 64.324 28.5967C63.6708 27.0949 62.7733 25.7639 61.6561 24.6375C60.5388 23.5142 59.2109 22.6106 57.7121 21.9574C56.2103 21.3041 54.5924 20.9714 52.8982 20.9714H43.0201C42.6507 20.9714 42.3088 21.0355 42.0036 21.1637C41.6983 21.2919 41.4266 21.4751 41.1946 21.7071C40.9626 21.9391 40.7795 22.2168 40.6513 22.5282C40.5231 22.8396 40.4589 23.1784 40.4589 23.5325V59.0554C40.4589 59.7697 40.7032 60.3649 41.2068 60.8656C41.7044 61.3631 42.3119 61.6134 43.017 61.6134C43.7222 61.6134 44.3235 61.3692 44.8272 60.8656C45.3309 60.3619 45.5751 59.7605 45.5751 59.0554V45.8255L45.572 45.8285ZM52.889 40.7094H45.572V26.0967H52.889C53.8781 26.0967 54.8274 26.289 55.7127 26.6736C56.5949 27.0552 57.3794 27.5833 58.0388 28.2426C58.6981 28.902 59.2262 29.6835 59.6078 30.5687C59.9894 31.4539 60.1847 32.4125 60.1847 33.4198C60.1847 34.4272 59.9924 35.3551 59.6078 36.2312C59.2262 37.1073 58.7042 37.8888 58.054 38.5543C57.4038 39.2228 56.6254 39.7539 55.7402 40.1355C54.8549 40.5171 53.8964 40.7124 52.889 40.7124V40.7094ZM45.8773 40.4041H52.889C53.8537 40.4041 54.7725 40.2179 55.6181 39.8546C56.4667 39.4883 57.2115 38.9786 57.8342 38.3406C58.457 37.6995 58.9606 36.9486 59.3269 36.1091C59.6933 35.2697 59.8764 34.3661 59.8764 33.4198C59.8764 32.4735 59.6902 31.5364 59.3269 30.6908C58.9606 29.8422 58.457 29.0913 57.8251 28.4594C57.1932 27.8275 56.4423 27.3208 55.5936 26.9575C54.745 26.5912 53.8353 26.408 52.889 26.408H45.8773V40.4102V40.4041Z" fill="white"/>
<path d="M119.719 23.5385C119.719 22.7875 119.985 22.1495 120.513 21.6184C121.041 21.0903 121.682 20.8247 122.433 20.8247C123.184 20.8247 123.822 21.0903 124.353 21.6184C124.881 22.1465 125.147 22.7875 125.147 23.5385V38.6884L142.165 21.6703C142.727 21.1086 143.386 20.8247 144.137 20.8247C144.512 20.8247 144.866 20.8919 145.199 21.0292C145.532 21.1666 145.822 21.3589 146.069 21.6062C146.316 21.8534 146.509 22.1434 146.646 22.4762C146.783 22.8089 146.851 23.163 146.851 23.5385C146.851 24.2894 146.585 24.9304 146.057 25.4585L132.647 38.8929L146.338 57.4465C146.68 57.9258 146.851 58.4355 146.851 58.9819C146.851 59.3391 146.783 59.6902 146.646 60.032C146.509 60.3739 146.323 60.6731 146.084 60.9264C145.846 61.1829 145.562 61.3874 145.239 61.54C144.915 61.6926 144.564 61.769 144.189 61.769C143.181 61.769 142.424 61.3843 141.912 60.6181L128.758 42.7789L125.15 46.387V59.0552C125.15 59.8061 124.884 60.4472 124.356 60.9753C123.828 61.5034 123.187 61.769 122.436 61.769C121.685 61.769 121.044 61.5034 120.516 60.9753C119.988 60.4472 119.722 59.8061 119.722 59.0552V23.5385H119.719Z" fill="white"/>
<path d="M144.185 61.9247C143.129 61.9247 142.32 61.5156 141.78 60.7036L128.736 43.0139L125.299 46.4511V59.0552C125.299 59.8459 125.018 60.5266 124.46 61.0822C123.904 61.6377 123.22 61.9216 122.433 61.9216C121.645 61.9216 120.961 61.6408 120.406 61.0822C119.85 60.5266 119.566 59.8459 119.566 59.0552V23.5385C119.566 22.7479 119.847 22.0671 120.406 21.5116C120.961 20.956 121.645 20.6721 122.433 20.6721C123.22 20.6721 123.904 20.953 124.46 21.5116C125.015 22.0671 125.299 22.7509 125.299 23.5385V38.3221L142.058 21.5635C142.647 20.9743 143.346 20.6752 144.137 20.6752C144.53 20.6752 144.906 20.7484 145.257 20.8919C145.608 21.0354 145.916 21.2399 146.176 21.4994C146.435 21.7619 146.64 22.0702 146.786 22.4182C146.93 22.7692 147.003 23.1447 147.003 23.5385C147.003 24.3291 146.722 25.0098 146.164 25.5654L132.845 38.9082L146.46 57.358C146.82 57.8617 147 58.4081 147 58.985C147 59.3605 146.927 59.7329 146.783 60.0901C146.64 60.4472 146.441 60.7647 146.191 61.0333C145.941 61.3019 145.638 61.5217 145.3 61.6805C144.958 61.8423 144.582 61.9247 144.185 61.9247ZM128.77 42.55L142.03 60.5296C142.522 61.2653 143.224 61.6194 144.185 61.6194C144.537 61.6194 144.866 61.5461 145.168 61.4027C145.474 61.2592 145.742 61.0638 145.968 60.8227C146.194 60.5815 146.371 60.2976 146.502 59.9741C146.631 59.6536 146.698 59.3178 146.698 58.982C146.698 58.4722 146.536 57.9838 146.215 57.5351L132.448 38.8777L145.95 25.3487C146.454 24.845 146.698 24.2528 146.698 23.5354C146.698 23.1813 146.634 22.8456 146.505 22.5311C146.377 22.2198 146.194 21.942 145.962 21.71C145.73 21.478 145.455 21.2948 145.141 21.1666C144.827 21.0384 144.491 20.9743 144.137 20.9743C143.422 20.9743 142.812 21.2368 142.275 21.7741L124.994 39.0547V23.5354C124.994 22.8303 124.741 22.2198 124.246 21.7253C123.742 21.2216 123.15 20.9774 122.436 20.9774C121.722 20.9774 121.12 21.2307 120.626 21.7253C120.122 22.2289 119.878 22.8211 119.878 23.5354V59.0583C119.878 59.7726 120.122 60.3679 120.626 60.8685C121.123 61.366 121.731 61.6164 122.436 61.6164C123.141 61.6164 123.742 61.3722 124.246 60.8685C124.75 60.3648 124.994 59.7634 124.994 59.0583V46.326L128.773 42.5469L128.77 42.55Z" fill="white"/>
<path d="M112.424 33.441C111.426 31.0539 109.921 28.853 107.906 26.8383C104.328 23.2606 100.104 21.2826 95.2316 20.8979V26.3499C98.62 26.7192 101.572 28.16 104.09 30.6784C107.024 33.6119 108.492 37.1529 108.492 41.2983C108.492 45.4437 107.024 49.0091 104.09 51.9457C101.584 54.4519 98.6322 55.8836 95.2316 56.2499V61.6987C100.116 61.3172 104.341 59.3482 107.906 55.7828C111.914 51.7748 113.92 46.9456 113.92 41.2983C113.92 38.4503 113.422 35.8312 112.424 33.441Z" fill="white"/>
<path d="M95.0787 61.8636V56.1125L95.2161 56.0973C98.5678 55.7371 101.52 54.3024 103.983 51.8359C106.874 48.9451 108.339 45.398 108.339 41.2984C108.339 37.1988 106.874 33.6761 103.983 30.7853C101.504 28.3066 98.5556 26.8658 95.2161 26.5025L95.0787 26.4873V20.7332L95.2436 20.7454C100.131 21.133 104.429 23.1447 108.013 26.7284C110.03 28.7462 111.56 30.9837 112.564 33.38C113.565 35.7763 114.072 38.4412 114.072 41.2953C114.072 46.9579 112.033 51.8695 108.013 55.8897C104.441 59.4612 100.146 61.4637 95.2436 61.8483L95.0787 61.8606V61.8636ZM95.384 56.3842V61.5309C100.143 61.1218 104.319 59.1499 107.796 55.673C111.758 51.7107 113.767 46.8754 113.767 41.2953C113.767 38.4809 113.266 35.8556 112.28 33.496C111.294 31.1363 109.786 28.9324 107.796 26.9421C104.304 23.45 100.128 21.4719 95.384 21.0598V26.2095C98.7388 26.6063 101.703 28.0716 104.2 30.5655C107.152 33.5174 108.647 37.1255 108.647 41.2953C108.647 45.4652 107.152 49.0977 104.2 52.0496C101.718 54.5313 98.751 55.9904 95.384 56.3812V56.3842Z" fill="white"/>
<path d="M91.8979 56.2774C88.3966 55.9538 85.3623 54.5099 82.7982 51.9457C79.8646 49.0122 78.3964 45.4621 78.3964 41.2983C78.3964 39.1829 78.7596 37.2537 79.4831 35.5137C80.2096 33.7737 81.3116 32.162 82.7982 30.6754C84.2817 29.1918 85.8996 28.0807 87.6487 27.3481C88.9613 26.7986 90.3777 26.4536 91.8979 26.3163V20.8796C86.91 21.2154 82.5967 23.1996 78.958 26.8352C74.9653 30.828 72.9689 35.648 72.9689 41.2953C72.9689 46.9426 74.9653 51.787 78.958 55.7798C82.5814 59.4032 86.8947 61.3752 91.8979 61.7109V56.2712V56.2774Z" fill="white"/>
<path d="M92.0504 61.8789L91.8886 61.8667C86.8671 61.5309 82.4806 59.5192 78.851 55.8897C74.8491 51.8878 72.8192 46.9762 72.8192 41.2953C72.8192 35.6145 74.8491 30.7304 78.851 26.7284C82.4958 23.0836 86.8793 21.0659 91.8886 20.7271L92.0504 20.7148V26.4537L91.91 26.4659C90.4112 26.6002 88.9978 26.9452 87.7035 27.4855C85.9819 28.2089 84.3671 29.317 82.9018 30.7792C81.4396 32.2414 80.3346 33.8531 79.6203 35.5656C78.906 37.2781 78.5458 39.2043 78.5458 41.2892C78.5458 45.3919 80.011 48.9359 82.9018 51.8267C85.4294 54.3543 88.4575 55.7951 91.9069 56.1156L92.0443 56.1278V61.8697L92.0504 61.8789ZM91.7451 21.0476C86.8824 21.4139 82.6179 23.3981 79.0678 26.9482C75.1238 30.8921 73.1244 35.7213 73.1244 41.2984C73.1244 46.8754 75.1238 51.7321 79.0678 55.676C82.6027 59.2109 86.8671 61.189 91.7451 61.5522V56.4148C88.2805 56.0637 85.234 54.5954 82.6881 52.0526C79.7363 49.1038 78.2405 45.4835 78.2405 41.2984C78.2405 39.1707 78.6099 37.2049 79.3395 35.4557C80.069 33.7066 81.1954 32.0613 82.6851 30.5686C84.1778 29.0759 85.8262 27.9464 87.5845 27.2077C88.8666 26.6704 90.2646 26.3224 91.7421 26.1759V21.0415L91.7451 21.0476Z" fill="white"/>
<path d="M93.4456 52.9684C99.884 52.9684 105.103 47.7463 105.103 41.3045C105.103 34.8627 99.884 29.6406 93.4456 29.6406C87.0072 29.6406 81.7878 34.8627 81.7878 41.3045C81.7878 47.7463 87.0072 52.9684 93.4456 52.9684Z" fill="#E8793E"/>
</g>
<defs>
<clipPath id="clip0_3_11">
<rect width="147" height="75.1667" fill="white"/>
</clipPath>
</defs>
</svg>
